HIERARCHY
ROOT hip
{
	OFFSET	0.0000	0.0000	0.0000
	CHANNELS	6	Xposition	Yposition	Zposition	Zrotation	Xrotation	Yrotation
	JOINT abdomen
	{
		OFFSET	0	3.402643	0
		CHANNELS	3	Zrotation	Xrotation	Yrotation
		JOINT chest
		{
			OFFSET	0	8.438565	-0.680529
			CHANNELS	3	Zrotation	Xrotation	Yrotation
			JOINT neck
			{
				OFFSET	0	10.207942	-0.272212
				CHANNELS	3	Zrotation	Xrotation	Yrotation
				JOINT head
				{
					OFFSET	0	3.130431	0
					CHANNELS	3	Zrotation	Xrotation	Yrotation
					End Site 
					{
						OFFSET	0	3.130435	0
					}
				}
			}
			JOINT lCollar
			{
				OFFSET	3.4707	6.669187	-0.816635
				CHANNELS	3	Zrotation	Xrotation	Yrotation
				JOINT lShldr
				{
					OFFSET	3.198488	0	0
					CHANNELS	3	Zrotation	Xrotation	Yrotation
					JOINT lForeArm
					{
						OFFSET	10.139888	0	0
						CHANNELS	3	Zrotation	Xrotation	Yrotation
						JOINT lHand
						{
							OFFSET	8.370511	0	0
							CHANNELS	3	Zrotation	Xrotation	Yrotation
							End Site 
							{
								OFFSET	4.083176	0	0
							}
						}
					}
				}
			}
			JOINT rCollar
			{
				OFFSET	-3.4707	6.669187	-0.816635
				CHANNELS	3	Zrotation	Xrotation	Yrotation
				JOINT rShldr
				{
					OFFSET	-3.198488	0	0
					CHANNELS	3	Zrotation	Xrotation	Yrotation
					JOINT rForeArm
					{
						OFFSET	-10.139888	0	0
						CHANNELS	3	Zrotation	Xrotation	Yrotation
						JOINT rHand
						{
							OFFSET	-8.370511	0	0
							CHANNELS	3	Zrotation	Xrotation	Yrotation
							End Site 
							{
								OFFSET	-4.083176	0	0
							}
						}
					}
				}
			}
		}
	}
	JOINT lThigh
	{
		OFFSET	5.308129	-1.633274	1.361059
		CHANNELS	3	Zrotation	Xrotation	Yrotation
		JOINT lShin
		{
			OFFSET	-2.041588	-20.007561	0
			CHANNELS	3	Zrotation	Xrotation	Yrotation
			JOINT lFoot
			{
				OFFSET	0	-19.190928	-1.224953
				CHANNELS	3	Zrotation	Xrotation	Yrotation
				End Site 
				{
					OFFSET	0	-2.449906	4.6276
				}
			}
		}
	}
	JOINT rThigh
	{
		OFFSET	-5.308129	-1.633274	1.361059
		CHANNELS	3	Zrotation	Xrotation	Yrotation
		JOINT rShin
		{
			OFFSET	2.041588	-20.007561	0
			CHANNELS	3	Zrotation	Xrotation	Yrotation
			JOINT rFoot
			{
				OFFSET	0	-19.190928	-1.224953
				CHANNELS	3	Zrotation	Xrotation	Yrotation
				End Site 
				{
					OFFSET	0	-2.449906	4.6276
				}
			}
		}
	}
}
MOTION
Frames:	18
Frame Time:	0.016667
-5.6075	49.2681	100.7643	0.7753	-12.8868	-6.9858	-3.9385	35.3630	4.2476	3.5913	-17.6359	4.3179	-2.4858	3.8692	1.1647	-2.6649	0.1574	1.6591	-7.4796	-0.0096	-5.1002	-72.0432	-1.8136	11.5821	6.3195	50.7559	-37.2174	-11.5988	-3.5653	17.3655	-1.3205	-0.0095	12.4507	69.8076	5.1347	-20.7940	-3.8718	36.8177	52.0120	-10.1765	0.1179	-0.7015	-2.3511	-7.2337	1.5116	-1.2204	33.6831	-2.0802	-12.1562	1.4713	-2.1547	-10.1974	-8.1768	-0.6445	-8.5365	77.8732	12.4889	7.7879	21.8704	10.1833	
-5.7064	49.6158	102.1289	0.5972	-12.7686	-6.1573	-3.6367	35.5399	3.0838	4.5840	-17.8780	3.5648	-2.6037	4.0141	1.1597	-2.7430	0.0673	1.6555	-7.3136	-0.0096	-4.9341	-72.3249	-1.0903	12.2623	5.9924	49.4424	-38.3715	-12.2883	-3.5569	16.2542	-1.4474	-0.0095	12.3628	69.6738	5.2575	-23.8155	-3.9943	37.6768	51.0963	-10.1862	0.1129	-0.6735	-2.2823	-5.1943	0.7715	-1.2369	33.1947	-2.0509	-12.1806	0.6058	-2.2967	-9.5066	-10.9684	-1.5642	-7.0168	76.1193	10.9533	7.5675	21.3823	11.1236	
-5.8052	49.9633	103.4935	0.4085	-12.6547	-5.3305	-3.3440	35.7066	1.9332	5.5697	-18.1413	2.8090	-2.7119	4.1684	1.1648	-2.8113	-0.0224	1.6511	-7.1566	-0.0192	-4.7705	-72.6902	-0.3904	12.9715	5.7519	48.1253	-39.6104	-12.9643	-3.5231	15.1625	-1.5841	-0.0095	12.2651	69.5289	5.3868	-26.8479	-4.1333	38.5310	50.1999	-10.2055	0.0969	-0.6396	-2.1815	-3.1808	0.0315	-1.2435	32.6964	-2.0344	-12.2187	-0.2867	-2.4159	-8.8462	-13.7701	-2.4457	-5.7636	74.3520	9.6518	7.3454	20.8939	12.0988	
-5.9197	50.1940	104.8116	0.4981	-12.1643	-4.1041	-3.1705	35.6002	0.6053	6.5677	-18.4031	1.8951	-2.3270	2.8777	0.8597	-3.0173	1.1173	1.4375	-7.2942	-0.0096	-4.5044	-72.3940	0.3063	13.6443	5.4035	46.5899	-41.2591	-12.9269	-3.4299	14.7872	-1.7501	-0.0095	12.2650	69.1158	5.4420	-29.5070	-4.1863	38.9453	49.4937	-9.5812	0.1445	-0.9611	-2.0480	-1.7523	-0.2878	-1.2718	32.3739	-1.9969	-12.2610	-0.9879	-3.0762	-8.6047	-16.2087	-3.6116	-3.9623	71.0053	7.7994	7.6374	20.3444	11.6268	
-6.0341	50.4246	106.1297	0.5776	-11.6794	-2.8813	-3.0084	35.4972	-0.7056	7.5665	-18.6803	0.9899	-1.9440	1.6026	0.5720	-3.2246	2.2493	1.2220	-7.4407	-0.0096	-4.2506	-72.1920	1.0121	14.2669	5.1572	45.0482	-43.0060	-12.9031	-3.3456	14.4059	-1.9064	-0.0095	12.2748	68.6972	5.5068	-32.1970	-4.2432	39.3489	48.7935	-8.9571	0.1851	-1.2858	-1.9096	-0.3114	-0.6115	-1.2789	32.0511	-1.9952	-12.3292	-1.6933	-3.7287	-8.4119	-18.6455	-4.7855	-2.7243	67.6535	6.5290	7.9541	19.7992	11.1373	
-6.1657	50.4816	107.4446	0.5572	-11.2085	-1.7374	-2.7514	35.4176	-1.8839	8.5172	-18.8255	0.2131	-1.7580	0.9011	0.5648	-3.2444	2.3751	1.2397	-7.5286	-0.0096	-4.1920	-71.8593	1.5223	14.1876	4.9450	44.0363	-45.1616	-12.3050	-3.1720	14.3609	-2.1115	-0.0095	12.3040	67.9731	5.5536	-34.6710	-4.3030	39.7867	48.3888	-8.7419	0.1672	-1.2031	-1.4478	0.5636	-0.2805	-1.2665	32.8038	-2.0109	-12.4419	-2.5606	-4.8147	-8.1875	-20.3137	-5.6562	-1.5582	62.7858	5.2841	8.4433	19.0550	10.0095	
-6.2972	50.5386	108.7595	0.5267	-10.7284	-0.5855	-2.4946	35.3394	-3.0517	9.4658	-18.9806	-0.5630	-1.5820	0.2089	0.5722	-3.2740	2.5001	1.2675	-7.6165	-0.0096	-4.1334	-71.5913	2.0413	14.0894	4.7877	43.0080	-47.3584	-11.7175	-2.9980	14.2991	-2.3263	-0.0095	12.3235	67.2418	5.6065	-37.1687	-4.3866	40.2218	47.9940	-8.5367	0.1610	-1.1265	-1.0058	1.4641	0.0215	-1.2482	33.5278	-2.0182	-12.5961	-3.4506	-5.9103	-7.9750	-21.9986	-6.5144	-0.7347	57.9010	4.3629	8.9340	18.3129	8.9053	
-6.4274	50.4359	110.0946	0.7152	-10.5627	0.3656	-2.5817	35.5624	-3.9216	10.3225	-18.8238	-1.1736	-1.3672	-0.8162	0.6349	-3.5578	2.6729	1.3887	-7.5481	-0.0096	-4.1432	-71.2910	2.2603	12.6451	4.6650	42.3795	-49.5983	-11.6400	-2.9567	14.2007	-2.3946	-0.0095	12.1965	66.3672	5.3794	-38.6501	-4.3921	40.2161	47.7298	-8.1843	0.1046	-0.7886	-0.8894	2.7519	-0.5365	-1.2246	33.9564	-2.0869	-12.6804	-4.0311	-6.5066	-8.0113	-22.4433	-6.9372	0.0158	51.3817	3.5065	9.5794	16.9195	7.5899	
-6.5576	50.3333	111.4298	0.9033	-10.3910	1.3154	-2.6685	35.7876	-4.7911	11.1743	-18.6774	-1.7833	-1.1431	-1.8404	0.6958	-3.8514	2.8346	1.5120	-7.4895	-0.0096	-4.1627	-71.0200	2.4772	11.1890	4.5746	41.7387	-51.8718	-11.5728	-2.9181	14.1005	-2.4532	-0.0095	12.0597	65.5323	5.1245	-40.1709	-4.3876	40.2099	47.4524	-7.8322	0.0524	-0.4488	-0.7532	4.0289	-1.1262	-1.2071	34.3761	-2.1244	-12.7765	-4.6029	-7.0680	-8.0473	-22.8775	-7.3584	0.5373	44.8468	2.8664	10.1532	15.5467	6.3253	
-6.6576	50.1599	112.7713	1.4569	-9.9901	2.0796	-3.2004	35.7789	-5.4402	11.9297	-18.6728	-2.3044	-0.7721	-2.4244	0.8951	-4.4081	2.8580	1.8066	-7.2356	-0.0096	-4.3384	-70.9049	2.4373	9.3629	4.3987	40.8225	-53.9322	-11.2695	-2.9162	14.5563	-2.8536	-0.0095	12.0694	64.8985	4.9731	-42.1454	-4.3506	39.9649	47.3388	-8.4086	0.0780	-0.5889	-1.0092	4.8407	-1.9908	-1.1709	35.1384	-2.1688	-12.8409	-4.6449	-7.5471	-8.5059	-22.3899	-7.5172	1.0485	36.2470	2.1861	10.3308	15.2397	5.8347	
-6.7577	49.9864	114.1129	2.0085	-9.5757	2.8358	-3.7412	35.7732	-6.0750	12.6816	-18.6729	-2.8179	-0.4009	-2.9961	1.1021	-4.9744	2.8658	2.1016	-6.9914	-0.0096	-4.5239	-70.7934	2.3931	7.5214	4.2825	39.8904	-56.0416	-10.9778	-2.9195	14.9988	-3.2540	-0.0095	12.0888	64.2831	4.8143	-44.1489	-4.3189	39.7172	47.2167	-8.9947	0.0986	-0.7398	-1.2449	5.6646	-2.8528	-1.1338	35.8909	-2.2138	-12.8934	-4.6706	-8.0210	-8.9596	-21.8983	-7.6699	1.3941	27.6469	1.6746	10.4992	14.9472	5.3610	
-6.8928	49.6073	115.5471	2.5626	-9.7548	3.5629	-4.3491	36.1958	-6.6845	13.4974	-18.4834	-3.3088	-0.0391	-3.5069	1.5406	-5.5399	2.9543	2.6215	-7.2160	-0.0096	-4.6021	-70.0612	2.3046	5.3631	4.1997	39.4100	-57.8529	-10.3971	-2.7345	14.8701	-3.6056	-0.0095	12.3230	63.6348	4.5772	-45.8327	-4.3352	39.8382	47.2394	-8.8774	0.0902	-0.6339	-1.2384	6.9625	-3.0328	-1.0582	37.4345	-2.3074	-13.1280	-5.5162	-9.1848	-9.2714	-20.5073	-6.7399	1.6052	19.4540	1.2700	10.8411	14.7572	4.0101	
-7.0280	49.2282	116.9813	3.1263	-9.9397	4.2958	-4.9602	36.6308	-7.2758	14.3069	-18.2927	-3.8115	0.3327	-4.0121	1.9765	-6.1145	3.0312	3.1523	-7.4406	-0.0096	-4.6803	-69.3108	2.1945	3.1880	4.1318	38.9296	-59.6680	-9.8185	-2.5540	14.7439	-3.9453	-0.0000	12.5684	63.0126	4.3281	-47.5491	-4.3504	39.9524	47.2545	-8.7699	0.0729	-0.5307	-1.2332	8.2832	-3.1851	-0.9804	38.9677	-2.4139	-13.4088	-6.3993	-10.4112	-9.6040	-19.1263	-5.8073	1.7638	11.2794	0.9070	11.1707	14.5742	2.6242	
-7.1558	48.8143	118.5260	3.6500	-10.0910	4.9362	-5.3149	36.7283	-7.7453	14.5766	-17.9509	-4.2907	0.7144	-4.3472	2.2614	-6.6105	2.9957	3.5025	-7.2257	-0.0096	-4.9536	-68.8734	1.8828	1.0104	4.1401	38.9779	-61.4377	-9.5789	-2.4712	14.6441	-4.2209	-0.0095	12.6646	62.7185	3.9842	-49.0875	-4.3334	39.8526	47.5134	-8.5258	0.0849	-0.6261	-1.0807	9.9259	-3.3229	-0.9076	39.9058	-2.4818	-13.5858	-6.6717	-11.5548	-10.0205	-18.4864	-5.4222	1.8098	6.9728	0.7473	11.4407	13.2870	1.2692	
-7.2837	48.4005	120.0707	4.1830	-10.2405	5.5819	-5.6686	36.8316	-8.2142	14.8336	-17.6019	-4.7673	1.1062	-4.6785	2.5419	-7.1058	2.9630	3.8625	-7.0108	-0.0096	-5.2270	-68.4196	1.5522	-1.1677	4.1400	39.0226	-63.1995	-9.3425	-2.4008	14.5393	-4.4943	-0.0095	12.7622	62.4715	3.6202	-50.6325	-4.3103	39.7473	47.7740	-8.2915	0.0882	-0.7341	-0.9170	11.5760	-3.4765	-0.8787	40.8517	-2.5636	-13.7790	-6.9278	-12.6750	-10.4358	-17.8569	-5.0336	1.8467	2.6733	0.6112	11.6560	12.0144	-0.0901	
-7.4041	48.0420	121.6497	4.2897	-10.2453	5.9256	-5.4928	36.7943	-8.5948	15.1123	-17.5810	-5.0168	1.0770	-4.9575	2.8378	-7.4569	3.2511	4.2069	-6.9425	-0.0096	-5.2074	-68.3414	1.2397	-2.7426	4.1553	39.1731	-64.6327	-8.6512	-2.2213	14.5559	-4.8557	-0.0095	12.7035	61.8444	3.6859	-52.4365	-4.3228	39.8271	47.8155	-8.3594	-0.0053	-0.0312	-0.3808	12.9681	-3.3615	-0.7917	41.9266	-2.6349	-13.7593	-6.3343	-13.5079	-10.4892	-19.0491	-4.5678	1.8309	4.9148	0.6710	12.0373	10.6515	-1.3053	
-7.5244	47.6835	123.2289	4.3865	-10.2604	6.2579	-5.3179	36.7658	-8.9839	15.3799	-17.5622	-5.2695	1.0478	-5.2270	3.1331	-7.8080	3.5352	4.5545	-6.8644	-0.0096	-5.1879	-68.2456	0.9283	-4.3156	4.1611	39.3223	-66.0489	-7.9504	-2.0370	14.5670	-5.2267	-0.0094	12.6448	61.2011	3.7656	-54.2725	-4.3282	39.9022	47.8586	-8.4382	-0.1088	0.6586	0.1509	14.3332	-3.2476	-0.7256	43.0191	-2.7391	-13.7275	-5.7458	-14.3032	-10.5280	-20.2436	-4.1111	1.7990	7.1658	0.7818	12.4139	9.3102	-2.5747	
-7.6424	47.4225	124.9232	3.9438	-10.2686	5.8925	-4.7252	36.3992	-9.2111	15.4414	-17.6184	-5.3298	1.1944	-5.2806	3.4702	-8.5294	3.8587	5.0211	-6.8742	-0.0096	-4.9047	-68.3247	0.6586	-4.9419	4.1755	39.4127	-67.1413	-7.0515	-1.8171	14.6950	-5.3439	-0.0094	12.6838	60.1558	4.4419	-56.4838	-4.2177	39.0595	47.8646	-8.4961	-0.0210	0.0727	0.7101	15.8063	-3.3952	-0.6936	43.7125	-2.7774	-13.1561	-3.5158	-13.6697	-9.6834	-20.8837	-4.5918	1.7493	10.7471	0.9260	12.2504	9.3778	-1.5198	
